<svg width="512" height="512" viewBox="0 0 512 512" fill="none" xmlns="http://www.w3.org/2000/svg">
  <rect x="32" y="32" width="448" height="448" rx="128" fill="#1FB98A" />
  <path
    d="M173 337C173 301.863 201.49 273.373 236.627 273.373H250.681C315.274 273.373 367.627 221.02 367.627 156.427V142.373"
    stroke="#0B111A"
    stroke-width="24"
    stroke-linecap="round"
    stroke-linejoin="round"
  />
  <path
    d="M173 337C173 301.863 201.49 273.373 236.627 273.373H250.681C315.274 273.373 367.627 221.02 367.627 156.427V142.373C367.627 142.373 300.97 161.706 241.977 176.478C214.492 183.362 192.26 204.819 185.009 232.209C177.758 259.598 186.597 288.89 208.194 307.34L251.327 344.186C266.229 356.922 285.194 363.923 304.797 363.923C347.994 363.923 383.009 328.908 383.009 285.712V271.659"
    stroke="#0B111A"
    stroke-width="24"
    stroke-linecap="round"
    stroke-linejoin="round"
  />
</svg>
